<?xml version="1.0" encoding="iso-8859-1"?>
<!-- Generator: Adobe Illustrator 19.0.0, SVG Export Plug-In . SVG Version: 6.00 Build 0)  -->
<svg xmlns="http://www.w3.org/2000/svg" xmlns:xlink="http://www.w3.org/1999/xlink" version="1.1" id="Layer_1" x="0px" y="0px" viewBox="0 0 512.008 512.008" style="enable-background:new 0 0 512.008 512.008;" xml:space="preserve" width="512" height="512">
<path d="M257.183,286.954c-7.767,7.766-35.157,7.031-35.157,7.031s-0.735-27.39,7.031-35.156c7.767-7.767,20.359-7.767,28.126,0  C264.949,266.595,264.949,279.188,257.183,286.954z M118.057,368.829c-7.767,7.766-7.031,35.156-7.031,35.156  s27.39,0.735,35.157-7.031c7.766-7.767,7.766-20.359,0-28.125C138.416,361.062,125.824,361.062,118.057,368.829z M166.183,278.829  c-7.767-7.767-20.359-7.767-28.125,0c-7.767,7.766-7.031,35.156-7.031,35.156s27.39,0.735,35.157-7.031  C173.949,299.188,173.949,286.595,166.183,278.829z M207.057,348.829c-7.767,7.766-7.031,35.156-7.031,35.156  s27.39,0.735,35.157-7.031c7.766-7.767,7.766-20.359,0-28.125C227.416,341.062,214.824,341.062,207.057,348.829z M185.183,187.829  c-7.767-7.767-20.359-7.767-28.125,0c-7.767,7.766-7.031,35.156-7.031,35.156s27.39,0.735,35.157-7.031  C192.949,208.188,192.949,195.595,185.183,187.829z M298.057,328.829c-7.767,7.766-7.031,35.156-7.031,35.156  s27.39,0.735,35.157-7.031c7.766-7.767,7.766-20.359,0-28.125C318.416,321.062,305.824,321.062,298.057,328.829z M511.917,232.291  c0.72,7.521-2.859,14.807-9.253,18.832c-18.599,11.711-36.203,20.096-52.752,25.155c8.531,18.311,12.111,35.869,10.849,53.199  c-1.975,27.093-15.443,52.772-41.176,78.506c-3.905,3.905-9.024,5.857-14.143,5.857s-10.237-1.952-14.143-5.857  c-7.81-7.811-7.81-20.475,0-28.285c38.247-38.247,34.896-67.176,16.327-97.884c-10.812-0.728-21.014-3.287-30.575-7.694  c-38.957-17.959-53.375-60.895-57.967-79.851c-13.318-2.55-65.666-15.202-85.998-59.308c-4.792-10.395-7.393-21.548-7.836-33.418  c-25.349-13.985-54.353-19.415-92.936,19.17C80.78,172.245,39.372,279.521,40.006,359.846c0.292,36.892,10.13,66.886,27.702,84.457  c17.853,17.853,48.503,27.69,86.305,27.701c0.02,0,0.043,0,0.063,0c47.182,0,104.903-14.497,158.383-39.779  c9.985-4.722,21.909-0.454,26.629,9.533c4.721,9.985,0.453,21.908-9.533,26.629c-58.635,27.721-122.593,43.616-175.48,43.617  c-0.026,0-0.047,0-0.073,0c-49.184-0.014-88.804-13.644-114.577-39.416C14.018,447.183,0.389,408.306,0.008,360.162  c-0.721-91.081,44.971-208.685,104.021-267.735c40.659-40.658,82.546-51.301,127.497-32.207  c5.109-16.001,13.288-32.974,24.557-50.872c4.026-6.394,11.304-9.968,18.832-9.253c7.521,0.721,13.994,5.618,16.732,12.66  c5.729,14.732,20.438,26.726,36.008,39.422c16.049,13.087,32.644,26.618,41.701,45.393c2.618,5.426,4.458,10.954,5.538,16.599  c16.394-12.332,31.499-22.053,44.893-30.668c38.802-24.959,52.221-35.039,52.221-63.496c0-11.046,8.954-20,20-20s20,8.954,20,20  c0,24.133-6.906,43.117-21.734,59.746c-12.485,14.002-29.336,24.841-48.847,37.391c-9.776,6.288-20.522,13.201-32,21.356  c1.157,0.458,2.31,0.94,3.458,1.464c19.117,8.729,33.084,24.985,46.591,40.705c12.887,14.999,25.059,29.167,39.781,34.893  C506.298,218.297,511.196,224.77,511.917,232.291z M325.76,154.812c0.305-0.678,0.65-1.344,1.037-1.997  c19.095-32.248,7.074-43.955-24.421-69.637c-9.114-7.433-18.844-15.366-27.472-24.57c-8.835,20.182-13.585,42.052-5.492,59.607  C281.362,144.135,316.694,152.949,325.76,154.812z M453.13,232.421c-8.903-8.123-16.689-17.186-23.994-25.688  c-26.689-31.064-38.879-42.964-71.602-23.719c2.462,11.098,11.625,43.527,36.404,54.843  C411.385,245.827,433.08,241.154,453.13,232.421z"/>















</svg>
